<?xml version="1.0" standalone="no"?>
<!DOCTYPE svg PUBLIC "-//W3C//DTD SVG 20010904//EN"
 "http://www.w3.org/TR/2001/REC-SVG-20010904/DTD/svg10.dtd">
<svg version="1.0" xmlns="http://www.w3.org/2000/svg"
 width="256.000000pt" height="256.000000pt" viewBox="0 0 256.000000 256.000000"
 preserveAspectRatio="xMidYMid meet">
<metadata>
Created by potrace 1.16, written by Peter Selinger 2001-2019
</metadata>
<g transform="translate(0.000000,256.000000) scale(0.100000,-0.100000)"
fill="#000000" stroke="none">
<path d="M462 2480 c-49 -62 -63 -86 -60 -107 5 -43 45 -44 80 -1 l27 33 1
-652 c0 -359 -1 -653 -3 -653 -2 0 -30 -5 -63 -11 -203 -37 -381 -208 -429
-410 -68 -290 109 -590 390 -664 78 -20 226 -19 296 1 204 61 361 234 392 433
l11 71 652 0 652 0 -40 -39 c-34 -34 -38 -43 -28 -60 19 -36 53 -25 139 46 55
46 81 74 81 88 0 30 -161 158 -192 153 -37 -5 -37 -55 -1 -84 l28 -23 -47 -1
-48 0 0 704 c0 434 -4 715 -10 730 -9 26 -10 26 -128 26 -78 0 -122 -4 -130
-12 -9 -9 -12 -185 -12 -730 l0 -718 -80 0 -80 0 0 560 c0 543 -1 560 -19 570
-11 5 -65 10 -120 10 -156 0 -141 63 -141 -590 l0 -550 -80 0 -80 0 0 384 c0
315 -2 386 -14 395 -9 8 -54 11 -132 9 l-119 -3 -3 -392 -2 -393 -23 0 c-21 0
-25 8 -36 64 -14 71 -50 154 -87 203 -23 30 -24 38 -24 187 0 143 -1 156 -19
166 -11 5 -65 10 -120 10 -126 0 -141 -10 -141 -96 0 -48 -2 -55 -17 -51 -10
3 -35 8 -55 12 l-38 6 0 655 0 655 31 -36 c32 -36 56 -44 77 -23 22 22 12 45
-55 127 -89 107 -97 107 -181 1z m1748 -1190 l0 -690 -55 0 -55 0 0 690 0 690
55 0 55 0 0 -690z m-430 -160 l0 -530 -55 0 -55 0 0 530 0 530 55 0 55 0 0
-530z m-440 -175 l0 -355 -60 0 -60 0 0 355 0 355 60 0 60 0 0 -355z m-440
111 l0 -84 -60 35 -60 36 0 49 0 48 60 0 60 0 0 -84z m-170 -85 c134 -55 239
-172 275 -305 31 -115 7 -295 -50 -370 -13 -18 -16 -17 -57 18 -51 44 -144 90
-213 107 -64 15 -206 15 -270 0 -69 -17 -162 -63 -212 -106 l-43 -36 -20 33
c-48 78 -70 211 -51 310 35 179 168 324 342 373 87 24 207 15 299 -24z m-90
-626 c56 -7 137 -44 202 -91 48 -36 49 -37 31 -57 -34 -39 -133 -95 -197 -112
-47 -13 -89 -16 -153 -13 -77 3 -99 9 -164 40 -41 20 -90 49 -109 66 l-35 30
30 32 c62 65 232 125 325 114 14 -2 45 -6 70 -9z"/>
<path d="M455 924 c-78 -40 -115 -104 -115 -197 0 -56 4 -71 33 -113 43 -64
101 -94 179 -94 90 0 152 39 193 119 19 39 23 123 6 173 -13 40 -74 102 -114
117 -42 16 -147 13 -182 -5z m165 -80 c39 -24 60 -65 60 -119 0 -42 -5 -52
-39 -86 -32 -33 -45 -39 -80 -39 -85 0 -141 52 -141 133 0 44 4 53 39 88 34
34 44 39 86 39 26 0 59 -7 75 -16z"/>
<path d="M1817 2476 c-71 -26 -92 -60 -127 -206 -40 -168 -71 -225 -141 -260
-21 -11 -97 -36 -169 -55 -158 -42 -215 -70 -269 -131 -42 -48 -61 -99 -106
-277 -30 -118 -60 -136 -183 -111 -41 8 -86 14 -100 12 -23 -3 -27 -8 -27 -37
0 -34 0 -34 65 -48 36 -8 94 -15 131 -16 121 -2 158 39 208 236 52 203 82 234
283 287 284 75 317 106 382 360 19 72 41 139 50 149 25 28 69 32 147 16 104
-22 127 -20 135 11 4 14 2 30 -4 36 -12 12 -173 48 -212 47 -14 0 -42 -6 -63
-13z"/>
</g>
</svg>
