<?xml version="1.0" standalone="no"?>
<!DOCTYPE svg PUBLIC "-//W3C//DTD SVG 20010904//EN"
 "http://www.w3.org/TR/2001/REC-SVG-20010904/DTD/svg10.dtd">
<svg version="1.0" xmlns="http://www.w3.org/2000/svg"
 width="256.000000pt" height="256.000000pt" viewBox="0 0 256.000000 256.000000"
 preserveAspectRatio="xMidYMid meet">

<g transform="translate(0.000000,256.000000) scale(0.100000,-0.100000)"
fill="#000000" stroke="none">
<path d="M349 2467 c-104 -30 -190 -104 -237 -206 -22 -46 -27 -71 -27 -141 0
-76 3 -92 32 -151 39 -79 102 -140 181 -177 48 -22 71 -27 142 -27 71 0 94 5
142 27 79 37 142 98 181 177 28 58 32 75 32 151 0 76 -4 93 -32 151 -60 121
-170 196 -300 205 -40 2 -87 -2 -114 -9z m187 -84 c102 -35 184 -151 184 -263
0 -151 -129 -280 -280 -280 -75 0 -139 27 -196 84 -113 114 -113 278 1 392 80
80 183 104 291 67z"/>
<path d="M400 2335 c0 -14 -8 -29 -21 -35 -27 -15 -59 -69 -59 -100 0 -54 50
-106 114 -119 37 -8 55 -34 40 -58 -16 -26 -51 -28 -66 -4 -15 24 -88 31 -88
9 0 -21 37 -76 59 -88 13 -6 21 -21 21 -35 0 -22 4 -25 40 -25 34 0 40 3 40
21 0 11 15 35 34 53 56 52 59 107 11 165 -17 20 -40 33 -67 38 -48 10 -69 34
-52 61 16 25 51 27 66 3 15 -24 88 -31 88 -8 0 20 -37 75 -59 87 -13 6 -21 21
-21 35 0 22 -4 25 -40 25 -36 0 -40 -3 -40 -25z"/>
<path d="M1189 2467 c-104 -30 -190 -104 -237 -206 -22 -46 -27 -71 -27 -141
0 -76 3 -92 32 -151 39 -79 102 -140 181 -177 48 -22 71 -27 142 -27 71 0 94
5 142 27 79 37 142 98 181 177 28 58 32 75 32 151 0 76 -4 93 -32 151 -60 121
-170 196 -300 205 -40 2 -87 -2 -114 -9z m187 -84 c68 -23 145 -102 169 -172
22 -67 17 -150 -14 -213 l-22 -47 -53 57 -53 56 20 39 c50 96 -18 215 -130
224 -59 5 -117 -25 -147 -76 -27 -46 -27 -122 0 -158 l20 -27 -47 -45 c-25
-25 -49 -53 -52 -61 -14 -41 -67 85 -67 160 0 75 27 139 85 196 80 80 183 104
291 67z m-39 -155 c32 -30 31 -81 -2 -113 -13 -14 -33 -25 -44 -25 -77 0 -118
84 -66 135 31 32 80 33 112 3z m23 -239 c47 -26 87 -91 67 -108 -49 -40 -171
-52 -247 -23 -53 21 -61 45 -29 86 53 67 137 85 209 45z"/>
<path d="M2029 2467 c-104 -30 -190 -104 -237 -206 -22 -46 -27 -71 -27 -141
0 -76 3 -92 32 -151 39 -79 102 -140 181 -177 48 -22 71 -27 142 -27 71 0 94
5 142 27 79 37 142 98 181 177 28 58 32 75 32 151 0 76 -4 93 -32 151 -60 121
-170 196 -300 205 -40 2 -87 -2 -114 -9z m51 -87 c0 -17 7 -20 40 -20 34 0 40
3 40 21 0 16 4 19 23 13 109 -33 180 -104 212 -211 5 -19 2 -23 -14 -23 -18 0
-21 -6 -21 -40 0 -34 3 -40 21 -40 16 0 19 -4 13 -22 -33 -110 -104 -181 -211
-213 -19 -5 -23 -2 -23 14 0 18 -6 21 -40 21 -34 0 -40 -3 -40 -21 0 -16 -4
-19 -22 -13 -110 33 -181 104 -213 212 -5 18 -2 22 14 22 18 0 21 6 21 40 0
34 -3 40 -21 40 -16 0 -19 4 -14 23 27 91 100 173 178 201 56 19 57 19 57 -4z"/>
<path d="M2080 2212 l0 -108 65 -64 65 -64 27 27 27 27 -52 53 -52 53 0 92 0
92 -40 0 -40 0 0 -108z"/>
<path d="M400 1640 l0 -40 40 0 40 0 0 40 0 40 -40 0 -40 0 0 -40z"/>
<path d="M1240 1640 l0 -40 40 0 40 0 0 40 0 40 -40 0 -40 0 0 -40z"/>
<path d="M2080 1640 l0 -40 40 0 40 0 0 40 0 40 -40 0 -40 0 0 -40z"/>
<path d="M400 1480 l0 -40 40 0 40 0 0 40 0 40 -40 0 -40 0 0 -40z"/>
<path d="M1240 1480 l0 -40 40 0 40 0 0 40 0 40 -40 0 -40 0 0 -40z"/>
<path d="M2080 1480 l0 -40 40 0 40 0 0 40 0 40 -40 0 -40 0 0 -40z"/>
<path d="M1062 1387 c-6 -7 -12 -39 -14 -71 l-3 -59 -50 -13 c-27 -7 -53 -13
-57 -14 -3 0 -20 23 -37 50 -21 34 -37 50 -51 50 -27 0 -366 -196 -374 -216
-3 -8 8 -39 24 -67 l30 -53 -43 -42 -42 -41 -52 29 c-29 16 -59 27 -67 24 -20
-8 -216 -347 -216 -373 0 -15 16 -31 50 -52 27 -17 50 -34 50 -37 -1 -4 -7
-29 -14 -57 l-13 -50 -59 -3 c-32 -2 -64 -8 -71 -14 -17 -14 -18 -229 -1 -246
8 -8 67 -12 199 -12 217 0 219 1 219 81 0 66 26 190 55 262 78 192 252 368
443 448 185 77 431 78 615 4 192 -78 364 -249 446 -441 34 -80 61 -201 61
-273 0 -80 2 -81 219 -81 132 0 191 4 199 12 17 17 16 232 -1 246 -7 6 -39 12
-71 14 l-59 3 -13 50 c-7 28 -13 53 -14 57 0 3 23 20 50 37 34 21 50 37 50 52
0 26 -196 365 -216 373 -8 3 -39 -8 -67 -24 l-53 -30 -42 43 -41 42 29 52 c16
29 27 59 24 67 -8 20 -347 216 -373 216 -15 0 -31 -16 -52 -50 -17 -27 -34
-50 -37 -50 -4 1 -29 7 -57 14 l-50 13 -3 59 c-2 32 -8 64 -14 71 -15 19 -421
19 -436 0z m380 -129 l3 -63 90 -23 c50 -14 99 -25 109 -26 17 -1 45 30 75 83
7 11 36 -2 135 -59 70 -40 129 -77 132 -81 2 -4 -8 -31 -23 -58 l-28 -50 83
-83 83 -83 50 28 c27 15 54 25 58 23 4 -3 41 -62 81 -132 57 -99 70 -128 59
-135 -53 -30 -84 -57 -82 -75 0 -10 11 -59 24 -107 25 -98 34 -107 110 -107
l39 0 0 -55 0 -55 -134 0 -134 0 -12 84 c-27 194 -107 353 -250 497 -214 216
-489 305 -785 254 -188 -33 -327 -107 -470 -250 -148 -148 -227 -303 -255
-501 l-12 -84 -134 0 -134 0 0 55 0 55 39 0 c76 0 85 9 110 107 13 48 24 97
24 107 2 18 -29 45 -82 75 -11 7 2 36 59 135 40 70 77 129 81 132 4 2 31 -8
58 -23 l50 -28 83 83 83 83 -28 50 c-15 27 -25 54 -23 58 3 4 62 41 132 81 99
57 128 70 135 59 30 -53 58 -84 75 -83 10 1 60 12 109 26 l90 23 3 63 3 62
159 0 159 0 3 -62z"/>
<path d="M400 1320 l0 -40 40 0 40 0 0 40 0 40 -40 0 -40 0 0 -40z"/>
<path d="M2080 1320 l0 -40 40 0 40 0 0 40 0 40 -40 0 -40 0 0 -40z"/>
<path d="M1150 866 c-148 -31 -261 -96 -368 -211 -105 -112 -163 -246 -178
-405 -9 -94 -7 -96 154 -69 72 12 136 25 143 29 7 5 16 37 21 72 16 122 95
231 208 286 48 24 67 27 150 27 83 0 102 -3 150 -27 114 -56 197 -171 207
-288 7 -75 3 -72 171 -100 154 -26 157 -24 148 70 -16 176 -74 299 -201 425
-97 98 -182 149 -300 180 -84 22 -226 27 -305 11z m293 -87 c20 -7 37 -16 37
-21 0 -5 -12 -30 -26 -54 l-26 -45 -47 8 c-25 4 -79 8 -118 7 l-73 -1 -15 53
c-8 28 -15 54 -15 57 0 20 221 16 283 -4z m-341 -74 l16 -56 -40 -20 c-22 -11
-60 -39 -84 -61 l-44 -40 -60 22 c-33 12 -63 26 -65 30 -8 13 108 113 170 147
83 45 89 43 107 -22z m597 -82 c40 -39 71 -75 68 -80 -3 -5 -33 -18 -66 -28
l-61 -18 -62 58 c-35 32 -67 62 -71 66 -5 4 -2 19 7 33 9 14 23 37 31 51 16
26 16 26 48 8 17 -10 65 -50 106 -90z m-846 -142 l45 -20 -24 -58 c-13 -32
-24 -69 -24 -83 0 -14 -4 -30 -8 -37 -8 -13 -149 -40 -158 -30 -11 10 18 122
49 190 34 76 32 75 120 38z m987 -68 c22 -60 43 -153 36 -161 -9 -8 -151 19
-158 31 -4 7 -8 22 -8 33 0 12 -7 41 -15 64 -8 24 -14 44 -13 45 4 3 122 43
130 44 4 1 16 -25 28 -56z"/>
<path d="M1240 397 l0 -123 -35 -17 c-58 -27 -104 -127 -75 -162 18 -22 282
-22 300 0 29 35 -17 135 -75 162 l-35 17 0 123 0 123 -40 0 -40 0 0 -123z m91
-217 l24 -19 -75 0 -75 0 24 19 c13 11 36 20 51 20 15 0 38 -9 51 -20z"/>
</g>
</svg>
