<?xml version="1.0" standalone="no"?>
<!DOCTYPE svg PUBLIC "-//W3C//DTD SVG 20010904//EN"
 "http://www.w3.org/TR/2001/REC-SVG-20010904/DTD/svg10.dtd">
<svg version="1.0" xmlns="http://www.w3.org/2000/svg"
 width="256.000000pt" height="256.000000pt" viewBox="0 0 256.000000 256.000000"
 preserveAspectRatio="xMidYMid meet">

<g transform="translate(0.000000,256.000000) scale(0.100000,-0.100000)"
fill="#000000" stroke="none">
<path d="M978 2434 c-244 -37 -482 -164 -655 -346 -154 -164 -249 -344 -299
-570 -21 -91 -24 -345 -5 -438 74 -373 300 -670 636 -835 221 -109 444 -142
698 -104 74 12 97 32 73 64 -11 15 -20 16 -84 6 -167 -26 -387 -7 -534 45
-280 101 -493 292 -623 559 -198 406 -126 882 184 1217 225 243 574 375 900
339 264 -28 483 -132 666 -315 257 -258 368 -620 300 -979 -7 -37 -9 -38 -39
-33 -17 3 -57 8 -89 12 -47 5 -57 9 -53 23 11 33 26 158 26 212 0 69 -27 228
-42 246 -14 18 -47 16 -55 -2 -3 -9 -1 -41 5 -73 6 -31 12 -75 14 -97 l3 -40
-50 -5 c-38 -4 -51 -9 -53 -23 -6 -30 17 -47 64 -47 41 0 44 -2 40 -22 -3 -13
-7 -43 -11 -68 -13 -102 -21 -117 -72 -134 -157 -54 -277 -204 -305 -381 l-12
-77 -65 -33 c-87 -43 -188 -74 -272 -81 l-68 -7 -3 49 c-3 47 -4 49 -33 49
-29 0 -30 -2 -33 -49 l-3 -49 -68 7 c-84 7 -185 38 -271 81 -67 34 -190 119
-190 132 0 4 14 21 30 38 33 34 32 60 -2 71 -14 4 -29 -3 -53 -26 l-33 -32
-45 57 c-89 114 -156 284 -172 443 l-7 62 40 0 c43 0 66 18 60 47 -2 13 -14
19 -46 21 -40 3 -42 5 -42 36 0 49 34 174 68 248 33 72 97 172 131 202 21 19
22 19 49 -7 33 -32 57 -34 72 -7 8 16 4 26 -21 55 -36 41 -41 33 61 104 104
73 224 121 350 141 93 14 90 15 90 -34 0 -87 62 -89 68 -2 l3 47 57 -7 c142
-17 318 -89 422 -172 25 -20 47 -37 49 -39 2 -1 -11 -19 -28 -39 -19 -21 -30
-43 -27 -51 3 -8 6 -17 6 -19 0 -15 49 1 72 23 27 26 28 26 49 7 12 -10 39
-45 61 -76 41 -61 69 -73 87 -39 8 15 3 31 -28 77 -112 173 -293 305 -506 370
-82 25 -104 28 -250 28 -145 0 -168 -3 -248 -27 -322 -99 -552 -334 -639 -655
-29 -107 -31 -325 -4 -432 70 -276 240 -488 493 -614 239 -119 533 -123 771
-11 75 35 92 37 92 8 0 -8 12 -42 26 -74 15 -33 25 -61 23 -63 -2 -2 -28 -15
-56 -30 -56 -28 -67 -52 -37 -77 13 -11 26 -8 80 19 l65 33 48 -43 c125 -112
303 -146 467 -88 76 26 109 51 109 81 0 34 -31 35 -93 4 -155 -78 -347 -42
-468 87 -183 196 -122 514 121 634 55 27 69 29 170 29 101 0 115 -2 170 -29
160 -79 255 -260 225 -429 -7 -33 -20 -78 -31 -100 -24 -45 -22 -80 4 -85 29
-6 54 25 77 92 70 212 -7 442 -187 553 -43 27 -44 29 -39 68 26 182 28 240 17
348 -20 197 -78 366 -180 524 -251 388 -703 589 -1163 517z"/>
<path d="M1137 1913 c-4 -3 -7 -110 -7 -237 l0 -231 -37 -20 c-108 -58 -112
-212 -7 -272 75 -44 176 -17 216 57 l18 35 176 5 c151 4 178 7 187 22 8 12 7
21 -2 32 -11 13 -41 16 -187 16 -164 0 -173 1 -179 20 -10 32 -52 76 -85 90
l-30 12 0 223 c0 123 -3 230 -6 239 -6 16 -45 22 -57 9z m88 -568 c35 -34 33
-78 -4 -116 -36 -36 -70 -37 -110 -3 -61 51 -26 144 54 144 25 0 44 -8 60 -25z"/>
<path d="M567 1382 c-13 -14 -17 -38 -17 -100 0 -109 4 -112 168 -112 117 0
124 1 147 25 22 21 25 33 25 95 0 106 -6 110 -173 110 -117 0 -136 -2 -150
-18z m251 -94 l3 -38 -100 0 -101 0 0 40 0 41 98 -3 97 -3 3 -37z"/>
<path d="M2121 694 l-93 -96 -47 45 c-53 53 -85 64 -136 47 -64 -21 -93 -97
-61 -158 25 -48 178 -189 214 -196 65 -15 90 0 225 133 71 69 135 138 143 153
25 48 18 102 -17 137 -26 27 -38 31 -82 31 l-52 0 -94 -96z m177 14 c7 -7 12
-20 12 -30 0 -26 -239 -266 -273 -274 -25 -6 -37 2 -113 78 -46 46 -84 92 -84
100 0 18 26 48 42 48 5 0 38 -27 72 -60 35 -33 69 -60 78 -60 8 0 61 47 117
105 100 102 124 118 149 93z"/>
</g>
</svg>
