<?xml version="1.0" standalone="no"?>
<!DOCTYPE svg PUBLIC "-//W3C//DTD SVG 20010904//EN"
 "http://www.w3.org/TR/2001/REC-SVG-20010904/DTD/svg10.dtd">
<svg version="1.0" xmlns="http://www.w3.org/2000/svg"
 width="256.000000pt" height="256.000000pt" viewBox="0 0 256.000000 256.000000"
 preserveAspectRatio="xMidYMid meet">
<metadata>
Created by potrace 1.16, written by Peter Selinger 2001-2019
</metadata>
<g transform="translate(0.000000,256.000000) scale(0.100000,-0.100000)"
fill="#000000" stroke="none">
<path d="M940 2498 c-38 -15 -74 -40 -116 -82 -78 -78 -104 -143 -104 -256 0
-113 26 -178 104 -256 78 -78 143 -104 256 -104 113 0 178 26 256 104 78 78
104 143 104 256 0 113 -26 178 -104 256 -79 79 -143 104 -259 103 -58 0 -98
-6 -137 -21z m246 -87 c216 -98 221 -397 9 -497 -137 -65 -302 -2 -366 140
-42 94 -14 230 62 303 75 71 205 95 295 54z"/>
<path d="M964 2307 c-2 -7 -3 -78 -2 -157 l3 -145 27 -3 c17 -2 72 20 157 63
124 62 131 67 131 95 0 28 -7 33 -130 95 -128 64 -176 78 -186 52z"/>
<path d="M1794 2446 c-35 -35 -35 -35 -32 -118 l3 -83 35 0 35 0 5 63 c8 94 0
92 282 92 225 0 239 -1 258 -20 19 -19 20 -33 20 -260 0 -227 -1 -241 -20
-260 -19 -19 -33 -20 -258 -20 -190 0 -242 3 -258 14 -17 13 -20 31 -24 158
l-5 143 -35 0 -35 0 -3 -163 -3 -163 35 -35 34 -34 292 0 292 0 34 34 34 34 0
292 0 292 -34 34 -34 34 -292 0 -292 0 -34 -34z"/>
<path d="M2074 2286 c-29 -29 -34 -41 -34 -79 0 -46 0 -46 -37 -49 -36 -3 -38
-5 -38 -38 0 -33 2 -35 37 -38 l37 -3 3 -77 3 -77 35 0 35 0 3 77 3 77 37 3
c35 3 37 5 37 38 0 33 -2 35 -37 38 -42 4 -49 22 -24 58 11 14 30 20 78 24
l63 5 0 35 0 35 -83 3 c-83 3 -83 3 -118 -32z"/>
<path d="M85 2108 c-3 -7 -4 -168 -3 -358 l3 -345 275 0 275 0 0 355 0 355
-273 3 c-213 2 -274 0 -277 -10z m475 -348 l0 -280 -200 0 -200 0 0 280 0 280
200 0 200 0 0 -280z"/>
<path d="M244 1786 c-3 -8 -4 -25 -2 -38 3 -23 5 -23 118 -23 l115 0 0 35 0
35 -113 3 c-91 2 -113 0 -118 -12z"/>
<path d="M244 1626 c-3 -8 -4 -25 -2 -38 3 -23 5 -23 118 -23 l115 0 0 35 0
35 -113 3 c-91 2 -113 0 -118 -12z"/>
<path d="M1583 1883 c-7 -3 -42 -44 -78 -93 -51 -69 -66 -96 -63 -117 2 -23 8
-29 34 -31 29 -3 36 4 96 85 36 48 68 94 72 100 15 28 -28 67 -61 56z"/>
<path d="M1655 1619 c-89 -66 -96 -74 -93 -103 2 -26 8 -32 31 -34 21 -3 48
12 117 63 87 65 94 73 90 105 -1 15 -27 40 -41 40 -4 0 -50 -32 -104 -71z"/>
<path d="M980 1404 c-157 -129 -314 -251 -350 -271 -114 -63 -146 -90 -164
-133 -9 -22 -16 -54 -16 -70 0 -23 -11 -41 -45 -73 -41 -40 -45 -47 -45 -93 0
-29 7 -59 16 -72 34 -49 116 -67 173 -37 26 13 32 12 67 -5 48 -25 109 -25
155 -1 l35 19 34 -60 c47 -86 84 -125 126 -132 73 -14 137 29 150 101 6 29 -1
49 -36 119 -24 46 -42 85 -39 87 2 2 135 52 294 112 160 59 296 112 303 118 6
5 12 20 12 33 0 22 -174 338 -208 377 -21 24 -49 21 -68 -8 -16 -24 -14 -28
74 -182 50 -87 88 -161 84 -164 -4 -4 -149 -60 -322 -124 -204 -77 -348 -137
-410 -172 -52 -29 -102 -53 -111 -53 -9 0 -26 8 -38 18 -28 23 -111 171 -111
198 0 28 30 57 107 100 l62 35 53 -91 c54 -93 82 -116 113 -90 25 20 18 48
-36 142 -29 51 -48 93 -43 98 5 5 115 97 244 204 221 183 236 193 249 175 18
-25 67 -25 81 0 11 22 6 40 -27 94 -41 66 -46 63 -363 -199z"/>
<path d="M1850 1434 c-36 -8 -88 -19 -117 -25 -55 -11 -71 -30 -58 -69 8 -26
57 -26 179 -1 83 18 116 36 116 63 0 11 -38 48 -47 47 -5 -1 -37 -7 -73 -15z"/>
<path d="M207 1274 c-4 -4 -7 -202 -7 -440 l0 -433 -57 -3 -58 -3 -3 -88 c-3
-80 0 -93 23 -133 15 -26 43 -54 69 -69 l43 -25 583 0 583 0 43 25 c26 15 54
43 69 69 23 40 26 53 23 133 l-3 88 -57 3 -58 3 0 209 c0 199 -1 210 -20 220
-14 8 -26 8 -40 0 -19 -10 -20 -21 -20 -220 l0 -210 -520 0 -520 0 0 400 0
400 181 2 c161 3 183 5 193 21 8 12 8 22 0 35 -10 15 -34 17 -226 20 -118 1
-217 -1 -221 -4z m1228 -991 c-14 -77 -54 -111 -139 -120 l-55 -6 -3 39 c-3
37 -5 39 -38 39 -33 0 -35 -2 -38 -37 l-3 -38 -359 0 -359 0 -3 38 c-3 35 -5
37 -38 37 -33 0 -35 -2 -38 -39 l-3 -39 -55 6 c-85 9 -125 43 -139 120 l-7 37
642 0 642 0 -7 -37z"/>
<path d="M1794 1206 l-34 -34 0 -292 0 -292 34 -34 34 -34 292 0 292 0 34 34
c35 35 35 35 32 118 l-3 83 -35 0 -35 0 -5 -63 c-8 -94 0 -92 -282 -92 -225 0
-239 1 -258 20 -19 19 -20 33 -20 260 0 227 1 241 20 260 19 19 33 20 258 20
190 0 242 -3 258 -14 17 -13 20 -31 24 -158 l5 -143 35 0 35 0 3 163 3 163
-35 35 -34 34 -292 0 -292 0 -34 -34z"/>
<path d="M2032 1020 c-48 -30 -72 -75 -72 -140 0 -65 24 -110 72 -140 45 -27
131 -27 176 0 48 30 72 75 72 140 0 65 -24 110 -72 140 -45 27 -131 27 -176 0z
m138 -90 c11 -11 20 -33 20 -50 0 -17 -9 -39 -20 -50 -43 -43 -120 -11 -120
50 0 38 32 70 70 70 17 0 39 -9 50 -20z"/>
</g>
</svg>
