<?xml version="1.0" standalone="no"?>
<!DOCTYPE svg PUBLIC "-//W3C//DTD SVG 20010904//EN"
 "http://www.w3.org/TR/2001/REC-SVG-20010904/DTD/svg10.dtd">
<svg version="1.0" xmlns="http://www.w3.org/2000/svg"
 width="256.000000pt" height="256.000000pt" viewBox="0 0 256.000000 256.000000"
 preserveAspectRatio="xMidYMid meet">

<g transform="translate(0.000000,256.000000) scale(0.100000,-0.100000)"
fill="#000000" stroke="none">
<path d="M442 2528 c-9 -9 -12 -83 -12 -270 l0 -258 -70 0 c-43 0 -82 -6 -99
-15 -39 -20 -78 -69 -91 -113 -6 -24 -10 -296 -10 -769 l0 -732 -57 -3 -58 -3
2 -56 c3 -104 63 -194 165 -250 l63 -34 1005 0 1005 0 57 28 c103 51 171 149
172 252 l1 60 -57 3 -58 3 0 727 c0 400 -5 745 -10 766 -11 48 -36 84 -80 114
-27 18 -47 22 -106 22 -74 0 -74 0 -74 27 0 22 -46 73 -242 270 l-242 243
-596 0 c-450 0 -599 -3 -608 -12z m1148 -288 c0 -207 1 -220 19 -230 12 -6
104 -10 230 -10 l211 0 0 -815 0 -815 -770 0 -770 0 0 1045 0 1045 540 0 540
0 0 -220z m245 0 l160 -160 -163 0 -162 0 0 160 c0 88 1 160 3 160 1 0 74 -72
162 -160z m-1405 -1090 l0 -780 -95 0 -95 0 0 746 c0 490 4 752 10 764 17 31
61 49 123 50 l57 0 0 -780z m1840 765 c16 -8 34 -24 40 -34 7 -13 10 -273 10
-765 l0 -746 -95 0 -95 0 0 780 0 780 55 0 c31 0 69 -7 85 -15z m170 -1630 c0
-26 -36 -88 -72 -122 -69 -67 -6 -63 -1090 -63 -1104 0 -1027 -5 -1097 75 -31
36 -61 91 -61 115 0 7 369 10 1160 10 1038 0 1160 -2 1160 -15z"/>
<path d="M829 2350 c-46 -13 -78 -41 -99 -84 -26 -54 -25 -89 1 -143 l21 -44
-42 -36 c-73 -63 -115 -190 -74 -224 25 -20 46 1 59 58 15 66 45 107 98 132
53 26 99 26 152 2 64 -30 105 -86 105 -146 0 -23 23 -55 40 -55 5 0 16 7 25
16 44 45 -30 196 -123 250 -2 1 6 17 17 35 29 48 28 125 -2 170 -23 36 -97 80
-132 78 -11 0 -32 -4 -46 -9z m105 -101 c34 -40 33 -74 -3 -110 -57 -56 -141
-23 -141 56 0 80 93 115 144 54z"/>
<path d="M653 1654 c-10 -27 11 -49 48 -49 31 0 34 3 34 30 0 27 -3 30 -38 33
-28 2 -39 -1 -44 -14z"/>
<path d="M834 1656 c-14 -36 0 -51 45 -51 47 0 69 19 58 49 -8 21 -95 23 -103
2z"/>
<path d="M1034 1656 c-13 -34 0 -51 42 -54 46 -3 69 15 59 48 -5 16 -15 20
-51 20 -30 0 -46 -5 -50 -14z"/>
<path d="M1226 1654 c-12 -30 12 -54 54 -54 29 0 42 5 50 19 18 35 2 51 -50
51 -34 0 -50 -4 -54 -16z"/>
<path d="M1425 1650 c-10 -33 12 -51 59 -48 38 3 41 5 41 33 0 29 -2 30 -47
33 -40 3 -47 0 -53 -18z"/>
<path d="M1623 1654 c-11 -30 11 -49 58 -49 42 0 44 1 44 30 0 29 -2 30 -48
33 -37 2 -49 -1 -54 -14z"/>
<path d="M1827 1664 c-4 -4 -7 -18 -7 -30 0 -17 7 -25 27 -30 34 -9 58 7 58
37 0 20 -6 24 -35 27 -20 2 -39 0 -43 -4z"/>
<path d="M1606 1461 c-21 -23 -14 -42 25 -65 17 -10 29 -19 27 -21 -2 -2 -149
-51 -328 -110 -726 -238 -675 -219 -675 -245 0 -12 7 -27 15 -32 11 -7 159 37
511 151 272 89 498 161 502 161 4 0 0 -14 -8 -30 -22 -42 -11 -72 23 -68 22 2
35 18 70 80 35 62 41 80 33 96 -9 18 -150 102 -170 102 -4 0 -15 -8 -25 -19z"/>
<path d="M1692 1108 c-17 -17 -17 -599 0 -616 16 -16 220 -16 236 0 17 17 17
599 0 616 -16 16 -220 16 -236 0z m168 -313 l0 -245 -50 0 -50 0 0 245 0 245
50 0 50 0 0 -245z"/>
<path d="M1337 1004 c-13 -13 -8 -499 5 -512 14 -14 205 -17 226 -4 9 7 12 66
10 263 l-3 254 -116 3 c-63 1 -118 -1 -122 -4z m173 -265 l0 -190 -52 3 -53 3
-3 188 -2 187 55 0 55 0 0 -191z"/>
<path d="M987 923 c-4 -3 -7 -102 -7 -219 0 -184 2 -213 16 -218 30 -11 209
-7 222 6 17 17 17 409 0 426 -13 13 -219 18 -231 5z m171 -220 l-3 -148 -52
-3 -53 -3 0 150 0 151 55 0 56 0 -3 -147z"/>
<path d="M626 804 c-12 -31 -7 -299 6 -312 16 -16 220 -16 236 0 13 13 18 281
6 312 -9 24 -239 24 -248 0z m174 -154 l0 -100 -50 0 -50 0 0 100 0 100 50 0
50 0 0 -100z"/>
<path d="M1236 241 c-11 -12 -16 -31 -14 -52 7 -73 109 -73 116 0 4 41 -21 71
-58 71 -15 0 -35 -9 -44 -19z"/>
</g>
</svg>
