<?xml version="1.0" standalone="no"?>
<!DOCTYPE svg PUBLIC "-//W3C//DTD SVG 20010904//EN"
 "http://www.w3.org/TR/2001/REC-SVG-20010904/DTD/svg10.dtd">
<svg version="1.0" xmlns="http://www.w3.org/2000/svg"
 width="256.000000pt" height="256.000000pt" viewBox="0 0 256.000000 256.000000"
 preserveAspectRatio="xMidYMid meet">

<g transform="translate(0.000000,256.000000) scale(0.100000,-0.100000)"
fill="#000000" stroke="none">
<path d="M1800 2464 c-108 -28 -219 -130 -256 -234 -9 -25 -18 -91 -21 -147
l-6 -101 -36 38 c-48 51 -98 63 -236 58 -124 -4 -169 -21 -222 -81 l-31 -35
-21 28 c-11 16 -36 34 -55 41 -33 12 -34 13 -38 83 -10 149 -100 240 -238 240
-137 0 -228 -91 -238 -239 l-4 -70 -39 -17 c-41 -17 -79 -68 -79 -106 0 -58
64 -122 123 -122 39 0 76 -44 77 -91 0 -42 14 -36 -155 -69 -124 -25 -166 -43
-211 -92 -64 -67 -68 -85 -72 -291 -3 -137 -1 -192 8 -202 9 -11 33 -15 79
-15 l67 0 23 -72 c13 -40 45 -114 71 -164 l47 -92 -45 -45 c-32 -32 -43 -50
-38 -64 8 -26 299 -313 317 -313 8 0 34 19 57 43 l43 44 102 -52 c57 -28 140
-62 185 -75 l82 -24 0 -61 c0 -34 5 -66 12 -73 17 -17 439 -17 456 0 7 7 12
39 12 73 l0 61 82 24 c45 13 128 47 185 75 l102 52 43 -44 c23 -24 49 -43 57
-43 18 0 309 287 317 313 5 14 -6 32 -38 64 l-45 45 48 93 c26 52 58 126 70
164 l21 71 67 0 c39 0 72 5 79 12 19 19 16 330 -4 397 -19 66 -79 133 -140
158 l-44 18 0 232 c0 134 -5 254 -11 285 -27 124 -108 232 -216 286 -102 51
-193 63 -293 36z m241 -96 c115 -53 190 -163 197 -291 l4 -68 -38 18 c-22 10
-45 26 -52 36 -9 12 -27 17 -60 17 -101 0 -229 49 -314 121 -78 66 -98 52 -98
-70 l0 -86 -40 -17 -40 -17 0 67 c0 85 12 128 53 189 33 50 107 106 161 123
57 17 166 7 227 -22z m-1344 -99 c32 -12 83 -57 83 -73 0 -6 -32 -21 -70 -34
l-70 -23 -70 23 c-38 13 -70 28 -70 34 0 15 50 61 80 73 34 13 82 13 117 0z
m-57 -199 c33 0 72 8 97 19 60 28 66 17 61 -118 -2 -92 -6 -114 -24 -137 -39
-53 -71 -69 -134 -69 -63 0 -95 16 -134 69 -18 23 -22 45 -24 143 -3 84 0 118
8 123 7 4 31 -1 54 -11 24 -11 64 -19 96 -19z m1359 -57 l83 -17 -4 -67 c-4
-73 -20 -104 -72 -143 -39 -29 -133 -29 -172 0 -62 46 -69 65 -72 199 l-4 124
79 -40 c49 -25 109 -46 162 -56z m-543 -77 l64 -65 0 -63 0 -63 -20 32 c-20
34 -66 63 -99 63 -13 0 -30 -14 -45 -37 -53 -83 -125 -122 -227 -123 -37 0
-70 -5 -77 -12 -9 -9 -12 14 -12 104 0 103 2 119 23 149 12 18 38 44 56 56 31
21 46 23 153 23 l119 0 65 -64z m-1056 -16 c0 -41 -7 -49 -28 -28 -21 21 -7
68 20 68 4 0 8 -18 8 -40z m514 17 c8 -12 8 -22 0 -34 -21 -33 -34 -26 -34 17
0 43 13 50 34 17z m766 -17 c0 -41 -7 -49 -28 -28 -21 21 -7 68 20 68 4 0 8
-18 8 -40z m514 17 c8 -12 8 -22 0 -34 -21 -33 -34 -26 -34 17 0 43 13 50 34
17z m-1234 -203 c0 -95 0 -96 -22 -91 -13 3 -49 11 -80 17 l-58 11 0 37 c1 47
38 92 77 92 15 1 39 7 53 15 14 8 26 14 28 15 1 0 2 -43 2 -96z m725 66 c37 0
74 -46 75 -92 l0 -37 -57 -11 c-32 -6 -68 -14 -80 -17 -23 -5 -23 -4 -23 91
l0 97 30 -16 c16 -8 41 -15 55 -15z m555 -66 c0 -95 0 -96 -22 -91 -13 3 -49
11 -80 17 l-58 11 0 37 c1 47 38 92 77 92 15 1 39 7 53 15 14 8 26 14 28 15 1
0 2 -43 2 -96z m-805 -132 c0 -154 -5 -169 -69 -216 -39 -29 -133 -29 -172 0
-53 39 -68 70 -72 144 l-4 70 29 0 c80 0 191 53 240 115 15 19 33 33 38 32 6
-2 10 -60 10 -145z m-713 48 c3 -30 8 -36 36 -45 42 -12 40 -29 -6 -75 -66
-66 -158 -66 -224 0 -42 41 -49 70 -19 70 28 0 51 27 51 58 l0 27 80 0 79 0 3
-35z m1280 0 c3 -30 8 -36 36 -45 42 -12 40 -29 -6 -75 -66 -66 -158 -66 -224
0 -42 41 -49 70 -19 70 28 0 51 27 51 58 l0 27 80 0 79 0 3 -35z m-1581 -102
c36 -88 120 -142 219 -142 99 0 183 54 219 143 9 21 19 30 28 27 8 -4 20 -6
26 -6 8 0 12 -18 12 -50 0 -42 5 -54 31 -81 21 -21 44 -32 74 -36 56 -8 89
-43 90 -95 0 -36 -1 -37 -50 -47 -70 -15 -70 -15 -70 24 0 34 -1 35 -40 35
l-40 0 0 -44 c0 -42 -2 -45 -32 -51 -48 -11 -99 -39 -132 -74 l-30 -31 -183 0
-183 0 0 100 0 100 -40 0 -40 0 0 -100 0 -100 -80 0 -80 0 0 145 c0 165 7 193
63 242 27 24 55 35 114 48 43 9 83 18 88 20 20 7 23 5 36 -27z m1280 0 c36
-88 120 -142 219 -142 99 0 183 54 219 142 9 22 19 31 30 28 9 -2 51 -12 94
-21 59 -13 87 -24 114 -48 56 -49 63 -77 63 -242 l0 -145 -100 0 c-107 0 -113
3 -81 48 27 39 49 94 56 147 l7 45 -41 0 c-38 0 -41 -2 -41 -27 0 -33 -40
-122 -63 -142 -10 -7 -17 -26 -17 -42 l0 -29 -163 0 -163 0 -30 31 c-35 37
-86 65 -136 74 -31 6 -39 13 -52 46 -9 22 -16 51 -16 64 0 23 -4 25 -41 25
l-40 0 6 -54 7 -54 -38 9 c-22 4 -42 9 -46 9 -5 0 -8 17 -8 38 1 48 37 92 77
92 66 0 130 72 120 136 -5 28 -2 33 16 37 12 2 25 5 28 6 4 0 13 -13 20 -31z
m-661 -28 c0 -41 -7 -49 -28 -28 -15 15 -15 41 0 56 21 21 28 13 28 -28z m514
17 c8 -12 8 -22 0 -34 -21 -33 -34 -26 -34 17 0 43 13 50 34 17z m-192 -287
c3 -30 8 -36 36 -45 42 -12 40 -29 -6 -75 -42 -42 -89 -57 -149 -45 -64 12
-148 115 -94 115 28 0 51 27 51 58 l0 27 80 0 79 0 3 -35z m-301 -102 c36 -88
120 -142 219 -142 99 0 183 54 219 142 9 22 19 31 30 28 9 -2 51 -12 94 -21
59 -13 87 -24 114 -48 56 -49 63 -77 63 -242 l0 -145 -80 0 -80 0 0 100 0 100
-40 0 -40 0 0 -100 0 -100 -280 0 -280 0 0 100 0 100 -40 0 -40 0 0 -100 0
-100 -80 0 -80 0 0 145 c0 165 7 193 63 242 27 24 55 35 114 48 43 9 83 18 88
20 20 7 23 5 36 -27z m-535 -130 c14 -47 77 -165 115 -215 31 -42 39 -61 39
-96 0 -55 13 -67 71 -67 35 0 60 -8 104 -35 196 -118 412 -151 627 -96 73 19
195 73 250 112 17 12 43 19 75 19 60 0 73 12 73 67 0 35 8 54 43 101 23 32 60
97 82 145 l40 87 118 0 c64 0 117 -2 117 -5 0 -23 -69 -183 -105 -245 -25 -42
-45 -80 -45 -84 0 -3 19 -27 42 -52 l42 -45 -112 -111 -111 -112 -45 42 c-25
23 -49 42 -54 42 -4 0 -30 -14 -58 -32 -78 -50 -185 -96 -285 -123 -51 -13
-96 -30 -101 -37 -4 -7 -8 -37 -8 -65 l0 -53 -160 0 -160 0 0 53 c0 28 -4 58
-9 65 -4 7 -41 22 -82 32 -97 25 -200 68 -286 119 -38 23 -72 41 -76 41 -4 0
-28 -19 -53 -42 l-45 -42 -111 112 -112 111 42 45 c23 25 42 49 42 52 0 4 -20
42 -45 84 -36 62 -105 222 -105 245 0 3 54 5 119 5 115 0 120 -1 127 -22z
m157 -45 c-3 -38 -6 -72 -7 -78 -3 -10 -48 73 -66 121 -9 23 -8 24 34 24 l44
0 -5 -67z m1267 43 c-18 -48 -63 -131 -66 -121 -1 6 -4 40 -7 78 l-5 67 44 0
c42 0 43 -1 34 -24z m-397 -401 c-154 -71 -392 -71 -546 0 l-52 23 325 0 325
0 -52 -23z"/>
</g>
</svg>
