<?xml version="1.0" standalone="no"?>
<!DOCTYPE svg PUBLIC "-//W3C//DTD SVG 20010904//EN"
 "http://www.w3.org/TR/2001/REC-SVG-20010904/DTD/svg10.dtd">
<svg version="1.0" xmlns="http://www.w3.org/2000/svg"
 width="256.000000pt" height="256.000000pt" viewBox="0 0 256.000000 256.000000"
 preserveAspectRatio="xMidYMid meet">

<g transform="translate(0.000000,256.000000) scale(0.100000,-0.100000)"
fill="#000000" stroke="none">
<path d="M247 2541 c-254 -84 -329 -415 -135 -597 76 -71 145 -99 249 -99 80
0 92 3 157 36 l70 36 77 -77 77 -77 -50 -74 c-60 -89 -96 -172 -112 -259 -7
-36 -14 -75 -16 -87 -4 -20 -11 -23 -47 -23 -38 0 -44 3 -62 38 -22 40 -90 82
-135 82 -14 0 -46 -10 -70 -22 -48 -25 -90 -89 -90 -138 0 -49 42 -113 90
-137 24 -13 56 -23 70 -23 45 0 113 42 135 82 18 35 24 38 62 38 41 0 42 -1
48 -37 20 -126 69 -257 125 -333 l19 -25 -60 -61 -61 -61 -70 36 c-65 33 -77
36 -157 36 -72 0 -95 -5 -143 -27 -303 -141 -281 -570 34 -670 173 -54 357 30
436 200 22 48 27 71 27 143 0 80 -3 92 -36 157 l-36 70 57 57 58 57 65 -53
c127 -105 300 -169 459 -169 46 0 47 -1 57 -37 15 -54 14 -62 -14 -95 -56 -67
-54 -158 6 -217 84 -84 225 -48 260 67 25 84 -27 170 -115 194 -42 11 -47 16
-57 50 -12 47 -8 54 35 62 42 8 144 49 188 76 18 11 42 20 53 20 13 0 134
-114 345 -326 179 -179 337 -332 352 -340 15 -8 37 -14 50 -14 37 0 88 38 105
77 29 71 22 79 -337 438 -181 181 -330 338 -330 347 0 9 15 48 34 85 19 37 40
87 47 110 6 24 16 43 20 43 5 0 28 -10 53 -21 37 -19 45 -28 50 -58 13 -78 83
-140 159 -141 106 -1 188 128 142 224 -47 98 -168 123 -252 52 l-28 -24 -53
27 -53 27 -3 104 c-4 122 -23 206 -74 307 l-36 73 43 44 43 43 70 -36 c65 -33
77 -36 157 -36 72 0 95 5 143 27 303 141 281 570 -34 670 -173 54 -357 -30
-436 -200 -22 -48 -27 -71 -27 -143 0 -80 3 -92 36 -157 l36 -70 -38 -38 -38
-38 -59 56 c-120 115 -243 173 -424 203 -37 6 -38 7 -38 48 0 38 3 44 38 62
40 22 82 90 82 135 0 49 -42 113 -90 138 -24 12 -56 22 -70 22 -14 0 -46 -10
-70 -22 -48 -25 -90 -89 -90 -138 0 -45 42 -113 82 -135 35 -18 38 -24 38 -62
0 -36 -3 -43 -22 -47 -13 -2 -52 -9 -88 -16 -87 -16 -170 -52 -259 -112 l-74
-50 -77 77 -77 77 36 70 c33 65 36 77 36 157 0 72 -5 95 -27 143 -79 170 -269
256 -441 199z m209 -78 c102 -35 184 -151 184 -263 0 -151 -129 -280 -280
-280 -151 0 -280 129 -280 280 0 75 27 139 85 196 80 80 183 104 291 67z m879
-168 c50 -49 15 -135 -55 -135 -19 0 -40 9 -55 25 -16 15 -25 36 -25 55 0 19
9 40 25 55 15 16 36 25 55 25 19 0 40 -9 55 -25z m961 8 c102 -35 184 -151
184 -263 0 -151 -129 -280 -280 -280 -151 0 -280 129 -280 280 0 75 27 139 85
196 80 80 183 104 291 67z m-862 -403 c116 -29 209 -83 297 -170 203 -203 246
-493 110 -758 -49 -94 -51 -126 -12 -178 16 -21 169 -178 340 -349 171 -170
311 -317 311 -325 0 -20 -20 -40 -40 -40 -8 0 -155 140 -325 311 -171 171
-328 324 -349 340 -52 39 -84 37 -178 -12 -265 -136 -554 -94 -758 111 -254
253 -254 647 0 900 162 162 387 226 604 170z m-1059 -565 c50 -49 15 -135 -55
-135 -41 0 -80 39 -80 80 0 41 39 80 80 80 19 0 40 -9 55 -25z m1920 -240 c50
-49 15 -135 -55 -135 -19 0 -40 9 -55 25 -16 15 -25 36 -25 55 0 19 9 40 25
55 15 16 36 25 55 25 19 0 40 -9 55 -25z m-1839 -392 c66 -22 145 -101 167
-167 37 -108 13 -211 -67 -292 -114 -113 -278 -113 -392 0 -113 114 -113 278
1 392 80 80 183 104 291 67z m1039 -328 c50 -49 15 -135 -55 -135 -41 0 -80
39 -80 80 0 41 39 80 80 80 19 0 40 -9 55 -25z"/>
<path d="M303 2420 c-53 -32 -77 -96 -52 -141 9 -17 4 -27 -30 -64 -67 -73
-78 -150 -28 -200 49 -49 144 -66 247 -44 129 28 156 139 59 244 -34 37 -39
47 -30 64 35 64 -33 161 -111 161 -13 0 -37 -9 -55 -20z m87 -75 c26 -32 -13
-81 -47 -59 -35 22 -23 74 17 74 10 0 23 -7 30 -15z m30 -161 c51 -31 76 -98
45 -124 -21 -18 -133 -24 -182 -11 -36 10 -43 16 -43 37 0 85 105 142 180 98z"/>
<path d="M2143 2260 c-53 -32 -77 -96 -52 -141 9 -17 4 -27 -30 -64 -67 -73
-78 -150 -28 -200 49 -49 144 -66 247 -44 129 28 156 139 59 244 -34 37 -39
47 -30 64 35 64 -33 161 -111 161 -13 0 -37 -9 -55 -20z m87 -75 c26 -32 -13
-81 -47 -59 -35 22 -23 74 17 74 10 0 23 -7 30 -15z m30 -161 c51 -31 76 -98
45 -124 -21 -18 -133 -24 -182 -11 -36 10 -43 16 -43 37 0 85 105 142 180 98z"/>
<path d="M1165 1826 c-354 -82 -540 -456 -390 -784 51 -111 156 -216 267 -267
259 -119 552 -32 710 210 113 172 112 417 -1 593 -41 62 -64 75 -89 50 -18
-18 -15 -36 18 -83 58 -85 74 -139 74 -260 1 -89 -3 -121 -21 -167 -49 -132
-160 -242 -291 -291 -81 -30 -243 -30 -324 0 -132 49 -242 159 -291 291 -30
81 -30 243 0 324 68 182 231 303 425 316 90 5 159 -9 246 -51 69 -33 94 -30
100 11 2 15 -8 27 -43 47 -105 62 -272 88 -390 61z"/>
<path d="M1213 1660 c-78 -35 -110 -120 -76 -201 l21 -48 -28 -11 c-45 -19
-111 -89 -139 -149 -22 -49 -26 -69 -26 -154 l0 -98 37 -34 c115 -106 441
-106 556 0 l37 34 0 98 c0 85 -3 105 -26 153 -28 60 -95 132 -139 150 l-28 11
21 48 c23 55 19 96 -13 149 -22 35 -88 72 -130 72 -14 0 -44 -9 -67 -20z m122
-85 c50 -49 15 -135 -55 -135 -19 0 -40 9 -55 25 -16 15 -25 36 -25 55 0 19 9
40 25 55 15 16 36 25 55 25 19 0 40 -9 55 -25z m52 -238 c40 -21 89 -70 110
-111 10 -18 18 -64 21 -111 5 -93 -1 -102 -83 -130 -108 -37 -266 -29 -351 19
-38 21 -39 23 -42 81 -4 80 3 115 36 163 54 81 122 115 217 108 34 -2 75 -11
92 -19z"/>
<path d="M303 660 c-53 -32 -77 -96 -52 -141 9 -17 4 -27 -30 -64 -67 -73 -78
-150 -28 -200 49 -49 144 -66 247 -44 129 28 156 139 59 244 -34 37 -39 47
-30 64 35 64 -33 161 -111 161 -13 0 -37 -9 -55 -20z m87 -75 c15 -18 10 -45
-12 -59 -35 -22 -74 27 -48 59 16 19 44 19 60 0z m30 -161 c51 -31 76 -98 45
-124 -21 -18 -133 -24 -182 -11 -36 10 -43 16 -43 37 0 85 105 142 180 98z"/>
</g>
</svg>
