<?xml version="1.0" standalone="no"?>
<!DOCTYPE svg PUBLIC "-//W3C//DTD SVG 20010904//EN"
 "http://www.w3.org/TR/2001/REC-SVG-20010904/DTD/svg10.dtd">
<svg version="1.0" xmlns="http://www.w3.org/2000/svg"
 width="256.000000pt" height="256.000000pt" viewBox="0 0 256.000000 256.000000"
 preserveAspectRatio="xMidYMid meet">

<g transform="translate(0.000000,256.000000) scale(0.100000,-0.100000)"
fill="#000000" stroke="none">
<path d="M673 2110 c-63 -13 -151 -51 -218 -95 -80 -52 -255 -227 -255 -255 0
-28 175 -203 254 -255 255 -165 494 -129 749 114 42 40 86 89 98 107 l21 34
-21 34 c-29 47 -164 173 -236 221 -132 87 -266 119 -392 95z m210 -91 c92 -31
168 -81 265 -175 l87 -84 -87 -84 c-270 -261 -506 -261 -776 0 l-87 84 87 84
c180 174 345 231 511 175z"/>
<path d="M669 1932 c-43 -22 -59 -38 -81 -81 -36 -68 -36 -114 0 -182 22 -43
38 -59 81 -81 31 -16 69 -28 91 -28 22 0 60 12 91 28 43 22 59 38 81 81 36 68
36 114 0 182 -22 43 -38 59 -81 81 -31 16 -69 28 -91 28 -22 0 -60 -12 -91
-28z m151 -68 c79 -47 79 -161 0 -208 -78 -45 -180 14 -180 104 0 91 102 149
180 104z"/>
<path d="M1332 1948 c-7 -7 -12 -19 -12 -28 0 -39 9 -40 480 -40 341 0 459 -3
468 -12 8 -8 12 -49 12 -120 l0 -108 -471 -2 c-437 -3 -473 -4 -483 -20 -8
-13 -8 -23 0 -35 10 -17 46 -18 483 -21 l471 -2 0 -508 c0 -382 -3 -511 -12
-520 -19 -19 -1641 -17 -1657 1 -7 10 -12 138 -13 412 -3 366 -4 399 -20 409
-13 8 -23 8 -35 0 -17 -10 -18 -43 -21 -413 -3 -444 -3 -443 61 -481 31 -19
56 -20 855 -20 908 0 862 -3 902 63 19 31 20 55 20 695 0 732 2 702 -63 742
-31 19 -53 20 -492 20 -345 0 -464 -3 -473 -12z"/>
<path d="M1810 1785 c-26 -32 13 -81 48 -59 34 22 22 74 -18 74 -10 0 -23 -7
-30 -15z"/>
<path d="M1970 1785 c-26 -32 13 -81 48 -59 34 22 22 74 -18 74 -10 0 -23 -7
-30 -15z"/>
<path d="M2130 1785 c-26 -32 13 -81 48 -59 34 22 22 74 -18 74 -10 0 -23 -7
-30 -15z"/>
<path d="M1730 1425 c-26 -32 13 -81 48 -59 34 22 22 74 -18 74 -10 0 -23 -7
-30 -15z"/>
<path d="M1892 1428 c-6 -6 -12 -20 -12 -29 0 -32 25 -40 125 -37 80 2 100 6
109 21 8 12 8 22 0 35 -9 14 -29 18 -110 20 -69 2 -103 -1 -112 -10z"/>
<path d="M1732 1268 c-17 -17 -17 -599 0 -616 17 -17 359 -17 376 0 17 17 17
599 0 616 -17 17 -359 17 -376 0z m308 -308 l0 -240 -120 0 -120 0 0 240 0
240 120 0 120 0 0 -240z"/>
<path d="M1252 1028 c-17 -17 -17 -359 0 -376 17 -17 359 -17 376 0 17 17 17
359 0 376 -17 17 -359 17 -376 0z m308 -188 l0 -120 -120 0 -120 0 0 120 0
120 120 0 120 0 0 -120z"/>
<path d="M772 868 c-16 -16 -16 -200 0 -216 17 -17 359 -17 376 0 16 16 16
200 0 216 -17 17 -359 17 -376 0z m308 -108 l0 -40 -120 0 -120 0 0 40 0 40
120 0 120 0 0 -40z"/>
</g>
</svg>
